<svg width="348" height="80" viewBox="0 0 348 80" fill="none" xmlns="http://www.w3.org/2000/svg">
<path d="M134.791 6.52655C134.596 7.11988 134.401 7.7132 134.206 8.30653C133.914 9.19651 133.621 10.0865 133.328 10.9765C133.328 11.1743 133.133 11.2732 132.938 11.2732H122.112C121.624 12.8554 121.137 14.3387 120.552 16.0198H137.522C138.4 16.0198 139.18 16.1186 140.058 16.5142C141.131 17.0086 141.716 17.8986 141.716 19.0853C141.716 20.0741 141.521 20.8652 141.229 21.7552C138.303 30.8529 135.377 39.9505 132.451 49.0482C132.158 50.0371 131.573 50.8282 130.793 51.4215C129.427 52.6081 127.769 53.4981 126.013 53.7948C125.818 53.7948 125.526 53.7948 125.331 53.7948H91.6816C91.6816 53.6959 91.6816 53.597 91.6816 53.4981C93.1446 48.9493 94.6076 44.4994 95.9731 39.9505C95.9731 39.6539 96.1682 39.555 96.4608 39.555C103.678 39.555 110.896 39.555 118.113 39.555C118.796 39.555 119.381 39.555 120.064 39.4561C122.795 39.0605 124.648 37.6761 125.526 35.0062C126.404 32.2373 127.281 29.5673 128.159 26.7985C128.452 26.0074 128.744 25.2163 128.842 24.3263C129.135 22.7441 128.452 21.4586 126.891 21.063C126.209 20.8652 125.428 20.7664 124.648 20.7664C120.844 20.7664 117.04 20.7664 113.237 20.7664C112.651 20.7664 112.066 20.7664 111.578 20.5686C110.311 20.2719 109.433 19.5797 109.14 18.2942C108.945 17.5031 109.043 16.6131 109.238 15.822C109.53 14.8331 109.92 13.7453 110.311 12.7565C110.603 11.9654 110.798 11.1743 111.188 10.4821C112.359 8.5043 114.212 7.41654 116.358 6.82321C116.65 6.82321 116.943 6.72433 117.138 6.62544H134.596L134.791 6.52655Z" fill="black"/>
<path d="M169.904 25.6118C169.611 26.5018 169.318 27.3918 169.026 28.1829C168.831 28.6773 168.636 29.2707 168.538 29.7651C168.538 30.0618 168.343 30.1606 168.05 30.1606C162.784 30.1606 157.419 30.1606 152.055 30.1606C151.762 30.1606 151.665 30.1606 151.567 30.4573C150.104 35.0061 148.641 39.4561 147.276 44.0049C147.276 44.0049 147.276 44.1038 147.276 44.2027H163.954C163.857 44.5982 163.759 44.8949 163.661 45.2904C162.784 48.0593 161.906 50.7292 161.126 53.4981C161.126 53.6959 161.028 53.7948 160.735 53.7948H138.205C137.425 53.7948 136.742 53.6959 136.059 53.3992C134.987 52.9048 134.401 52.1137 134.304 50.927C134.304 50.2348 134.304 49.5426 134.596 48.8504C136.547 42.7194 138.595 36.5883 140.546 30.4573C140.936 29.3695 141.521 28.5784 142.399 27.8862C143.765 26.6996 145.228 25.9085 147.081 25.6118H169.904C169.904 25.6118 170.196 25.5129 170.099 25.7107L169.904 25.6118Z" fill="black"/>
<path d="M153.713 23.5352H146.886C146.105 23.5352 145.52 23.3375 145.032 23.0408C144.545 22.7441 144.252 22.1508 144.252 21.5575C144.252 20.9642 144.252 21.063 144.35 20.7664L149.031 6.82324H155.859L154.006 12.4598H157.419L156.541 15.2287H153.128L152.152 17.9975H155.566L153.713 23.5352Z" fill="black"/>
<path d="M170.879 23.5352H160.638C159.858 23.5352 159.272 23.3375 158.785 22.9419C158.297 22.5464 158.004 22.0519 158.004 21.4586C158.004 20.8653 158.004 20.9642 158.102 20.7664L159.955 15.2287C160.053 14.8331 160.345 14.5365 160.638 14.1409C160.93 13.8443 161.321 13.5476 161.711 13.2509C162.101 12.9543 162.589 12.7565 162.979 12.6576C163.369 12.5587 163.857 12.4598 164.344 12.4598H172.537C174 12.4598 174.683 12.8554 174.683 13.7454C174.683 14.6354 174.39 14.8331 173.707 15.2287L169.416 17.9975H172.83L170.976 23.5352H170.879ZM170.294 15.1298H166.88L165.905 17.8987L170.294 15.1298Z" fill="black"/>
<path d="M181.803 23.5352H174.878L180.437 6.82324H187.362L181.803 23.5352Z" fill="black"/>
<path d="M192.336 23.5352H185.411L190.971 6.82324H197.896L192.336 23.5352Z" fill="black"/>
<path d="M209.697 23.5352H206.089L206.479 22.6452C205.308 23.2386 204.43 23.5352 203.65 23.5352H199.261C198.969 23.5352 198.676 23.5352 198.286 23.4363C197.896 23.3374 197.701 23.2386 197.408 23.0408C197.115 22.843 196.92 22.6452 196.823 22.4475C196.725 22.2497 196.628 21.953 196.628 21.5575C196.628 21.1619 196.628 21.063 196.725 20.8653L198.578 15.3276C198.676 15.0309 198.871 14.6353 199.164 14.3387C199.456 14.042 199.846 13.7454 200.237 13.4487C200.627 13.152 201.114 12.9543 201.504 12.8554C201.895 12.7565 202.48 12.6576 202.87 12.6576H213.209L209.502 23.8319L209.697 23.5352ZM208.137 17.8986L209.112 15.1298H205.698L204.821 17.8986H208.234H208.137Z" fill="black"/>
<path d="M156.541 15.1298H121.722L122.6 12.262L157.419 12.3609" fill="black"/>
<path d="M163.174 40.0494C163.076 40.3461 162.881 40.7416 162.589 41.0383C162.296 41.335 162.003 41.6316 161.711 41.8294C161.418 42.0272 160.93 42.2249 160.54 42.4227C160.15 42.5216 159.663 42.6205 159.272 42.6205H153.225C152.933 42.6205 152.64 42.6205 152.348 42.4227C152.055 42.3238 151.86 42.1261 151.567 41.9283C151.275 41.7305 151.177 41.5327 151.08 41.2361C150.982 40.9394 150.885 40.7416 150.885 40.445C150.885 40.1483 150.885 40.1483 150.885 39.9505L152.543 34.8084C152.64 34.4128 152.835 34.1162 153.128 33.8195C153.42 33.5228 153.713 33.2262 154.103 33.0284C154.493 32.8306 154.883 32.6329 155.274 32.4351C155.664 32.3362 156.054 32.2373 156.444 32.2373H162.589C163.271 32.2373 163.856 32.4351 164.247 32.7317C164.637 33.0284 164.929 33.5228 164.929 34.1162C164.929 34.7095 164.929 34.6106 164.832 34.8084L163.174 39.9505V40.0494ZM157.809 37.4783L158.687 34.9073H155.664L154.786 37.4783H157.809Z" fill="black"/>
<path d="M239.055 67.9357H188.142C185.997 67.9357 184.924 67.0457 184.924 65.3646C184.924 63.6836 184.924 64.6724 185.119 64.4747L190.776 46.6749L184.339 53.7948H175.951L174 46.6749L171.659 53.7948H163.271L172.439 25.7108H180.827L182.388 46.6749L197.701 25.7108H206.089L196.92 53.7948C196.92 54.0915 196.823 54.3881 196.823 54.7837C196.823 56.4648 197.896 57.3548 200.041 57.3548H242.566L239.152 68.0346L239.055 67.9357Z" fill="black"/>
<path d="M236.324 35.8961C236.129 36.4895 235.739 37.0828 235.251 37.5772C234.763 38.1705 234.178 38.665 233.593 39.0605C232.91 39.4561 232.228 39.8516 231.545 40.1483C230.765 40.445 230.082 40.5438 229.302 40.5438H218.28L213.794 54.5859H202.675L211.648 26.6007H233.788C234.276 26.6007 234.763 26.6007 235.349 26.8974C235.836 27.0951 236.324 27.2929 236.714 27.5896C237.104 27.8862 237.494 28.2818 237.689 28.6773C237.982 29.0729 238.08 29.5673 238.08 29.9629C238.08 30.3584 238.08 30.6551 237.787 31.2484L236.324 35.8961ZM225.205 35.8961L226.766 31.2484H221.206L219.646 35.8961H225.205Z" fill="black"/>
<path d="M282.75 71.4957H249.589C249.101 71.4957 248.613 71.4957 248.028 71.199C247.54 71.0012 247.053 70.8034 246.663 70.4079C246.272 70.1112 245.98 69.7157 245.687 69.3201C245.492 68.9246 245.297 68.4301 245.297 67.8368C245.297 67.2435 245.297 67.0457 245.492 66.7491L254.465 38.665H248.906L244.419 52.707H233.398L240.908 29.3696C241.103 28.6774 241.493 28.084 241.981 27.5896C242.469 26.9963 243.054 26.5018 243.737 26.1063C244.419 25.7107 245.102 25.3152 245.785 25.1174C246.565 24.8207 247.248 24.7219 247.93 24.7219H264.511C267.437 24.7219 268.9 25.7107 268.9 27.6885C268.9 29.6662 268.803 28.7763 268.608 29.3696L261.098 52.707C261 53.1026 260.902 53.597 260.902 54.1903C260.902 56.3659 262.365 57.4536 265.194 57.4536H287.334L282.848 71.4957H282.75ZM256.026 34.1162L257.489 29.4685H252.027L250.466 34.1162H256.026Z" fill="black"/>
<path d="M288.309 52.8059H282.848L287.334 38.7639H281.775L277.288 52.8059H266.267L272.314 34.1161H288.895C290.065 34.1161 291.04 34.4128 291.918 35.105C292.698 35.7972 293.089 36.6872 293.089 37.6761C293.089 38.665 293.089 38.3683 292.893 38.7639L288.407 52.8059H288.309Z" fill="black"/>
<path d="M310.352 66.749C309.864 68.2324 308.987 69.3201 307.621 70.1112C306.256 70.9023 304.89 71.3968 303.33 71.3968H270.168L274.655 57.3547H296.697C298.453 57.3547 299.916 56.9592 301.086 56.0692C302.257 55.2781 303.135 54.0914 303.72 52.707H298.258C295.429 52.707 293.966 51.6193 293.966 49.3448C293.966 47.0704 293.966 48.6526 294.259 48.0593L298.746 34.0173H304.207L301.184 43.3127H306.743L309.767 34.0173H320.788L310.254 66.749H310.352Z" fill="black"/>
<path d="M107.775 28.3807C107.58 28.2818 107.482 28.0841 107.287 27.9852C106.799 28.3807 106.214 28.6774 105.726 29.0729C100.46 32.9296 95.1928 36.7862 90.0236 40.6428C89.1458 41.335 88.5606 41.335 87.6828 40.6428C85.7321 39.1595 83.6839 37.775 81.6357 36.3906C80.5628 37.8739 79.5875 39.1595 78.6121 40.445C79.685 41.7305 80.6603 43.0161 81.6357 44.2027C82.9036 45.686 82.9036 47.3671 81.8307 48.9493C80.9529 50.2349 80.0751 51.4215 79.1973 52.7071C79.0023 53.1026 78.8072 53.7948 79.0023 54.1904C79.7825 55.4759 80.7579 56.6626 81.6357 57.8492C83.5863 56.4648 85.4395 55.1792 87.1951 53.8937C88.3655 52.9048 89.2433 52.9048 90.5112 53.8937C95.583 57.8492 100.85 61.6069 106.019 65.4635C106.507 65.8591 106.994 66.1558 107.482 66.4524C107.58 66.3535 107.677 66.1558 107.775 66.0569C103.288 59.827 98.8016 53.4982 94.315 47.1694C98.8016 40.8406 103.288 34.7095 107.775 28.4796V28.3807ZM53.6435 47.0705C54.9114 45.1916 56.0819 43.5105 57.3498 41.7305C56.2769 40.2472 55.2041 38.7639 54.1312 37.2806C52.6682 38.2695 51.3027 39.0606 50.1323 40.1483C48.7668 41.335 47.694 41.4339 46.1334 40.1483C41.2567 36.2917 36.185 32.7318 31.1132 29.0729C30.6256 28.6774 30.1379 28.4796 29.5527 28.183C29.4552 28.2818 29.3576 28.3807 29.2601 28.5785C29.5527 29.0729 29.8453 29.5674 30.2354 30.0618C33.9417 35.204 37.5505 40.3461 41.2567 45.3894C42.2321 46.6749 42.4271 47.5649 41.2567 49.0482C37.3554 54.1904 33.7466 59.4314 29.9428 64.6724C29.6502 65.1669 29.3576 65.5624 28.9675 66.0569C29.065 66.1558 29.2601 66.3535 29.3576 66.4524C35.5023 61.9036 41.6469 57.4537 47.7915 52.9048C49.8397 54.2893 51.8879 55.6737 53.9361 57.0581C55.1065 55.4759 56.0819 54.0915 57.1547 52.6082C55.8868 50.7293 54.7164 49.0482 53.4484 47.1694L53.6435 47.0705ZM52.9608 31.5451C52.7657 31.644 52.6682 31.8418 52.4731 32.0396C55.1065 35.7973 57.6424 39.6539 60.2758 43.3127C62.7141 46.576 62.6166 47.8616 60.1783 51.1249C57.5449 54.5859 55.009 58.1459 52.3756 61.6069C53.1558 61.6069 53.741 61.508 54.2287 61.1125C57.935 58.5414 61.8363 56.0692 65.4451 53.3004C67.1032 52.1137 68.176 52.1137 69.7366 53.3004C73.833 56.4648 78.0269 59.4314 82.1233 62.4969C82.1233 61.8047 81.8307 61.2114 81.5381 60.7169C79.0023 56.9592 76.4664 53.1026 73.833 49.3449C72.4675 47.3671 72.37 46.7738 73.833 44.7961C76.6614 40.8406 79.4899 36.9839 82.3184 33.0284C82.611 32.6329 82.9036 32.1385 83.1962 31.644L82.8061 31.2485C82.4159 31.4462 82.0258 31.644 81.7332 31.8418C77.8319 34.7095 74.028 37.5773 70.1267 40.445C68.0785 42.0272 67.2007 42.0272 65.1525 40.445C61.1536 37.4784 57.0572 34.4129 53.0583 31.4462L52.9608 31.5451ZM67.0056 28.3807L66.5179 27.8863C63.8845 29.864 61.1536 31.8418 58.3251 34.0173C59.4955 34.8084 60.3733 35.4017 61.4462 35.9951C63.2993 33.424 65.1525 30.8529 67.0056 28.3807ZM66.5179 66.3535C66.713 66.2546 66.8106 66.0569 67.0056 65.958C65.1525 63.3869 63.2993 60.8158 61.3487 58.047C60.3733 58.8381 59.4955 59.6292 58.5202 60.4203C61.3487 62.4969 63.8845 64.3758 66.5179 66.3535ZM77.4417 33.1273C74.9058 31.2485 72.6626 29.6663 70.4193 28.0841C70.2242 28.2818 70.1267 28.4796 69.9316 28.5785C71.4922 30.754 73.0527 33.0284 74.7108 35.3029C75.5886 34.6106 76.3689 33.9184 77.3442 33.1273H77.4417ZM74.8083 59.0359C73.1502 61.4092 71.4922 63.6836 69.9316 65.958C70.1267 66.1558 70.2242 66.2546 70.4193 66.3535C72.7601 64.5736 75.1009 62.8925 77.5393 61.0136C76.5639 60.3214 75.7836 59.7281 74.8083 59.0359Z" fill="white"/>
<path d="M107.677 66.848L107.385 66.6502C107.189 66.5513 106.994 66.3535 106.799 66.2547C106.507 66.0569 106.117 65.8591 105.824 65.6613L102.605 63.288C98.509 60.3214 94.315 57.2559 90.2186 54.0915C89.1457 53.3004 88.463 53.3004 87.3901 54.0915C86.2197 55.0804 84.8543 55.9704 83.5863 56.8603C83.0011 57.2559 82.5135 57.6514 81.9283 58.047L81.6357 58.2448L81.4406 57.9481C81.2455 57.6514 80.9529 57.3548 80.7579 56.9592C80.0751 56.0692 79.3924 55.1793 78.8072 54.1904C78.5146 53.6959 78.8072 52.7071 79.0022 52.3115C79.4899 51.6193 79.9776 50.9271 80.4652 50.2349C80.8554 49.6416 81.2455 49.1471 81.6357 48.5538C82.611 47.0705 82.5135 45.6861 81.4406 44.3016C80.7579 43.5105 80.1726 42.7194 79.4899 41.9283L78.1244 40.2472L78.3195 39.9506C79.0998 38.9617 79.7825 37.8739 80.6603 36.7862L81.5381 35.5006L81.8307 35.6984C82.4159 36.094 82.9036 36.4895 83.4888 36.8851C84.9518 37.8739 86.4148 38.9617 87.8778 40.0495C88.5605 40.6428 88.9507 40.6428 89.7309 40.0495C94.4126 36.5884 99.1917 33.0285 103.776 29.6663L105.434 28.4796C105.922 28.0841 106.409 27.7874 106.994 27.3919L107.287 27.1941L107.872 27.6885H108.555L94.8027 46.7738L108.36 65.6613L107.58 66.5513L107.677 66.848ZM88.8531 52.7071C89.4383 52.7071 90.0235 53.0037 90.7063 53.4982C94.8027 56.6626 98.9966 59.7281 103.093 62.6947L106.312 65.068C106.604 65.2658 106.799 65.4636 107.092 65.5625L93.9249 47.0705L107.189 28.5785C106.799 28.8752 106.409 29.073 106.019 29.3696L104.361 30.5563C99.7769 33.9184 94.9978 37.4784 90.3161 40.9395C89.2433 41.7306 88.463 41.7306 87.4877 40.9395C86.1222 39.8517 84.5617 38.8628 83.0987 37.8739C82.611 37.5773 82.2209 37.2806 81.7332 36.984L81.2455 37.5773C80.4653 38.5662 79.7825 39.555 79.0998 40.445L79.9776 41.6317C80.6603 42.4228 81.2455 43.2139 81.9283 44.005C83.2937 45.6861 83.3913 47.466 82.1233 49.246C81.7332 49.8393 81.3431 50.3338 80.9529 50.9271C80.4652 51.6193 79.9776 52.3115 79.4899 53.0037C79.2948 53.3004 79.1973 53.8937 79.2948 53.9926C79.8801 54.8826 80.5628 55.7726 81.2455 56.6626C81.4406 56.8603 81.5381 57.0581 81.7332 57.2559C82.2209 56.9592 82.7085 56.5637 83.0987 56.267C84.4641 55.377 85.7321 54.487 86.9025 53.4982C87.5852 52.9048 88.1704 52.7071 88.8531 52.7071ZM70.3218 66.848L69.3464 65.958L74.7108 58.4425L75.0034 58.6403C75.7836 59.2336 76.4664 59.7281 77.1491 60.2225L78.222 61.0136L77.7343 61.3103C75.491 62.9914 73.3453 64.5736 71.1996 66.2547L70.3218 66.9469V66.848ZM74.8083 59.5303L70.5168 65.6613L70.7119 65.4636C72.6626 63.9802 74.7108 62.4969 76.759 60.9147H76.6614C76.0762 60.4203 75.491 59.9259 74.9058 59.5303H74.8083ZM66.6155 66.848L57.935 60.4203L58.3251 60.1236C59.3005 59.3325 60.0807 58.6403 60.9585 57.9481L61.5437 57.4537L61.8363 57.8492C63.1043 59.6292 64.3722 61.4092 65.5426 63.0903L67.6883 66.0569L66.713 66.9469L66.6155 66.848ZM59.2029 60.3214L66.3229 65.5625L64.7623 63.3869C63.5919 61.8047 62.5191 60.2225 61.2511 58.5414C60.5684 59.1348 59.8857 59.7281 59.2029 60.3214ZM29.5527 66.848L29.2601 66.5513C29.1626 66.4524 28.9675 66.2547 28.87 66.1558L28.5774 65.958L29.065 65.2658C29.2601 64.9691 29.5527 64.5736 29.7478 64.2769C30.6256 62.9914 31.6009 61.7058 32.4787 60.4203C35.2096 56.5637 38.1357 52.5093 41.0617 48.6527C42.037 47.3671 41.8419 46.7738 41.0617 45.4883C38.2332 41.7306 35.5022 37.7751 32.7713 34.0173L29.9428 30.1607C29.6502 29.7652 29.4552 29.4685 29.1626 29.073L28.7724 28.4796L29.4552 27.5896L29.7478 27.7874C29.9428 27.7874 30.0404 27.9852 30.2354 28.0841C30.6256 28.2819 31.0157 28.4796 31.3083 28.7763C32.6738 29.7652 34.1368 30.8529 35.5023 31.8418C39.0135 34.4129 42.7197 37.0828 46.2309 39.8517C47.5964 40.9395 48.4742 40.9395 49.7422 39.8517C50.62 39.1595 51.4978 38.4673 52.4731 37.8739C52.8632 37.5773 53.3509 37.2806 53.741 36.984L54.0336 36.7862L57.6424 41.8294L53.9361 47.1694L57.6424 52.6082L57.4473 52.806C56.5695 54.0915 55.5942 55.377 54.6188 56.7615L54.0336 57.5526L53.741 57.3548C51.7904 55.9704 49.8397 54.6848 47.889 53.3004C42.7197 57.157 37.4529 60.9147 32.2836 64.7713L29.4552 66.848H29.5527ZM30.0404 28.7763C30.2354 29.073 30.4305 29.3696 30.6256 29.6663L33.454 33.5229C36.185 37.2806 38.9159 41.1372 41.7444 44.9938C42.7197 46.3783 43.1099 47.466 41.7444 49.1471C38.8184 53.0037 35.9899 57.0581 33.1614 60.9147C32.2836 62.2003 31.3083 63.4858 30.4305 64.7713C30.2354 65.068 30.0404 65.3647 29.8453 65.6613L31.991 64.0791C37.2579 60.2225 42.5247 56.3659 47.7915 52.4104L47.9866 52.2126L48.1816 52.4104C50.1323 53.7948 51.9854 55.0804 53.9361 56.3659V56.1681C55.009 54.8826 55.8868 53.6959 56.667 52.5093L53.2534 47.3671L52.9608 47.1694L53.2534 46.7738L56.7646 41.6317L53.9361 37.6762C53.6435 37.8739 53.2534 38.0717 52.9608 38.3684C51.9854 38.9617 51.1076 39.555 50.3274 40.2472C48.7668 41.6317 47.4989 41.6317 45.7433 40.2472C42.2321 37.4784 38.5258 34.8084 35.0146 32.2374C33.6491 31.2485 32.1861 30.1607 30.8206 29.1718C30.528 28.9741 30.2354 28.7763 29.9428 28.6774L30.0404 28.7763ZM82.611 63.3869L81.9283 62.8925C80.7579 62.1014 79.685 61.2114 78.5146 60.4203C75.491 58.2448 72.4675 55.9704 69.5415 53.6959C68.0785 52.6082 67.2007 52.6082 65.7377 53.6959C63.1043 55.7726 60.2758 57.6514 57.5448 59.4314C56.5695 60.1236 55.4966 60.8158 54.5213 61.5081C53.9361 61.9036 53.2534 62.1014 52.4731 62.0025H51.6928L52.1805 61.3103C52.9608 60.2225 53.8386 59.1348 54.6188 58.047C56.3744 55.6737 58.13 53.2015 59.9832 50.8282C62.324 47.7627 62.4215 46.6749 60.0807 43.5105C58.2276 40.9395 56.3744 38.2695 54.6188 35.6984C53.8386 34.5118 53.0583 33.424 52.278 32.2374L52.083 31.9407L52.9608 31.1496H53.1558C53.1558 31.0507 53.3509 31.1496 53.3509 31.1496C57.3498 34.1162 61.4462 37.1817 65.4451 40.1484C67.3957 41.6317 67.9809 41.6317 69.9316 40.1484C73.5404 37.4784 77.1491 34.8084 80.7579 32.1385L81.5381 31.5451C81.7332 31.3474 82.0258 31.2485 82.3184 31.0507C82.4159 31.0507 82.611 30.9518 82.7085 30.8529L83.0011 30.6552L83.8789 31.4463L83.6839 31.7429C83.6839 31.9407 83.4888 32.0396 83.3913 32.2374C83.1962 32.534 83.0011 32.9296 82.8061 33.2262L80.5628 36.3906C78.5146 39.2584 76.3688 42.1261 74.3206 44.9938C73.0527 46.7738 73.0527 47.1694 74.3206 49.0482C77.0516 53.0037 79.685 56.9592 82.0258 60.4203C82.4159 61.0136 82.611 61.6069 82.7085 62.398V63.288L82.611 63.3869ZM67.5908 52.0149C68.3711 52.0149 69.1513 52.3115 69.9316 53.0037C72.8576 55.2781 75.9787 57.5526 78.9047 59.7281C79.7825 60.3214 80.5628 60.9147 81.4406 61.6069C81.4406 61.4092 81.2455 61.2114 81.148 61.1125C78.8072 57.6514 76.1738 53.5971 73.4428 49.7404C71.8823 47.5649 71.8823 46.7738 73.4428 44.6972C75.491 41.8294 77.6368 38.9617 79.685 36.094L81.9283 32.9296C82.1233 32.6329 82.3184 32.3362 82.5135 32.0396C82.3184 32.1385 82.1233 32.2374 81.9283 32.4351L81.148 33.0285C77.5392 35.6984 73.9305 38.3684 70.3218 41.0383C68.0785 42.7194 67.1031 42.7194 64.8599 41.0383C60.861 38.0717 56.9596 35.1051 52.9608 32.2374C53.6435 33.2262 54.4238 34.314 55.1065 35.3029C56.8621 37.8739 58.7153 40.5439 60.5684 43.115C63.1043 46.4772 63.0067 48.0594 60.4709 51.4215C58.6177 53.7948 56.8621 56.267 55.1065 58.6403C54.5213 59.5303 53.8386 60.4203 53.2534 61.2114C53.546 61.2114 53.741 61.0136 54.0336 60.9147C55.009 60.2225 56.0818 59.5303 57.0572 58.8381C59.7881 56.9592 62.6166 55.0804 65.25 53.1026C66.1278 52.4104 66.9081 52.1137 67.5908 52.1137V52.0149ZM61.6413 36.4895L57.7399 33.9184L58.2276 33.5229C61.0561 31.4463 63.6895 29.3696 66.4204 27.3919L66.713 27.1941L67.6883 28.2819L64.9574 32.1385C63.9821 33.424 63.0067 34.8084 62.0314 36.1929L61.8363 36.4895H61.6413ZM59.1054 33.9184L61.4462 35.4018C62.324 34.1162 63.2993 32.9296 64.1771 31.644L66.5179 28.3807C64.0796 30.1607 61.6413 32.0396 59.1054 33.9184ZM74.7108 35.8962L69.4439 28.5785L69.8341 28.0841C69.8341 28.0841 70.0292 27.8863 70.0292 27.7874L70.2242 27.4908L77.9294 33.1273L74.5157 35.8962H74.7108ZM70.6144 28.5785L74.9058 34.6107L76.759 33.1273L70.5168 28.5785H70.6144Z" fill="white"/>
<path d="M107.775 28.3807C103.288 34.6106 98.8991 40.7417 94.315 47.0705C98.8016 53.3993 103.288 59.6292 107.775 65.958C107.677 66.0569 107.58 66.2546 107.482 66.3535C106.994 66.0569 106.409 65.6613 106.019 65.3647C100.85 61.508 95.583 57.7503 90.5112 53.7948C89.2433 52.8059 88.3655 52.9048 87.1951 53.7948C85.4395 55.1792 83.6839 56.3659 81.6357 57.7503C80.7579 56.5637 79.7825 55.377 79.0023 54.0915C78.8072 53.7948 79.0023 53.0037 79.1973 52.6082C79.9776 51.3226 80.9529 50.136 81.8307 48.8504C82.9036 47.2682 82.9036 45.686 81.6357 44.1038C80.6603 42.9172 79.685 41.6317 78.6121 40.3461C79.5875 39.0606 80.4653 37.775 81.6357 36.2917C83.6839 37.775 85.7321 39.0606 87.6828 40.5439C88.5606 41.2361 89.1458 41.1372 90.0236 40.5439C95.1928 36.5884 100.46 32.8307 105.726 28.9741C106.214 28.5785 106.799 28.2818 107.287 27.8863C107.482 27.9852 107.58 28.183 107.775 28.2818V28.3807Z" fill="black"/>
<path d="M107.58 66.848L106.994 66.4524C106.604 66.1558 106.214 65.958 105.824 65.6613L102.118 62.8925C98.2164 60.0247 94.2175 57.0581 90.3162 54.0915C89.2433 53.3004 88.5606 53.3004 87.4877 54.0915C86.3173 55.0804 84.9518 55.9704 83.6839 56.8603C83.0987 57.2559 82.611 57.6514 82.0258 58.047L81.7332 58.2448L81.5381 57.9481C81.2455 57.6514 81.0505 57.2559 80.7579 56.9592C80.0751 56.0692 79.3924 55.1793 78.8072 54.2893C78.5146 53.7948 78.8072 52.9048 79.0023 52.4104C79.4899 51.7182 79.9776 50.9271 80.4653 50.3338C80.8554 49.8393 81.2455 49.246 81.6357 48.6527C82.611 47.1694 82.611 45.7849 81.4406 44.4005H81.3431C80.3677 43.115 79.3924 41.9283 78.4171 40.6428L78.222 40.3461L78.4171 40.0495C79.0023 39.2584 79.5875 38.5662 80.0751 37.7751L81.6357 35.6984L81.9283 35.8962C82.5135 36.2917 83.1962 36.7862 83.7814 37.1817C85.1469 38.1706 86.6099 39.1595 87.9753 40.1484C88.6581 40.7417 89.0482 40.7417 89.8285 40.1484C93.7298 37.1817 97.7287 34.314 101.63 31.3474L105.531 28.4796C105.922 28.183 106.214 27.9852 106.604 27.6885L107.385 27.1941L107.97 27.7874H108.652L108.165 28.4796C103.776 34.6107 99.3868 40.7417 94.9002 46.9716L108.457 65.8591L107.677 66.7491L107.58 66.848ZM88.8532 52.7071C89.4384 52.7071 90.0236 53.0037 90.7063 53.4982C94.6076 56.4648 98.6065 59.4314 102.508 62.2992L106.214 65.068C106.507 65.2658 106.702 65.4636 106.994 65.6613L93.7298 47.1694L93.9249 46.9716C98.3139 40.8406 102.703 34.8084 106.994 28.6774C106.604 28.9741 106.312 29.2707 105.922 29.4685L102.02 32.3362C98.0213 35.204 94.12 38.1706 90.2186 41.0383C89.1458 41.8294 88.3655 41.8294 87.3901 41.0383C86.0247 40.0495 84.6592 39.0606 83.2937 38.0717C82.8061 37.6762 82.3184 37.3795 81.7332 36.984L80.6603 38.4673C80.1727 39.1595 79.685 39.8517 79.0998 40.5439C80.0751 41.7306 80.9529 42.8183 81.8307 43.9061H81.9283C83.2937 45.6861 83.3913 47.466 82.1233 49.246C81.7332 49.8393 81.3431 50.3338 80.9529 50.9271C80.4653 51.6193 79.9776 52.3115 79.4899 53.0037C79.2949 53.3004 79.1973 53.8937 79.2949 53.9926C79.8801 54.8826 80.4653 55.7726 81.148 56.6626C81.3431 56.8603 81.5381 57.157 81.6357 57.3548C82.1233 57.0581 82.611 56.6626 83.0011 56.3659C84.3666 55.4759 85.6345 54.5859 86.8049 53.5971C87.4877 53.0037 88.0729 52.806 88.7556 52.806L88.8532 52.7071Z" fill="white"/>
<path d="M53.6435 47.0705C54.9114 48.9494 56.0819 50.6305 57.3498 52.5093C56.3745 53.8937 55.3016 55.3771 54.1312 56.9593C52.083 55.5748 50.0348 54.1904 47.9866 52.806C41.8419 57.3548 35.6973 61.8047 29.5527 66.3536C29.4552 66.2547 29.2601 66.0569 29.1626 65.958C29.4552 65.4636 29.7478 65.068 30.1379 64.5736C33.8442 59.3326 37.5505 54.0915 41.4518 48.9494C42.5247 47.4661 42.3296 46.675 41.4518 45.2905C37.7455 40.2473 34.0393 35.1051 30.4305 29.963C30.0404 29.4685 29.7478 28.9741 29.4552 28.4797C29.5527 28.3808 29.6502 28.2819 29.7478 28.0841C30.2354 28.3808 30.8206 28.6774 31.3083 28.9741C36.2825 32.6329 41.3543 36.1929 46.3285 40.0495C47.889 41.2361 48.9619 41.2361 50.3274 40.0495C51.4978 39.0606 52.8632 38.2695 54.3262 37.1818C55.3991 38.6651 56.472 40.1484 57.5449 41.6317C56.3745 43.4117 55.1065 45.0928 53.8386 46.9716L53.6435 47.0705Z" fill="black"/>
<path d="M29.5527 66.848L29.2601 66.6502C29.065 66.5513 28.9675 66.3535 28.7724 66.2547L28.5774 66.0569L29.065 65.2658C29.2601 64.9691 29.4552 64.6725 29.6502 64.3758C30.7231 62.9914 31.6984 61.5081 32.6738 60.1236C35.3072 56.3659 38.0381 52.5093 40.8666 48.8505C41.8419 47.5649 41.6469 46.9716 40.8666 45.6861C37.9406 41.6317 34.9171 37.5773 32.0886 33.5229L29.8453 30.3585C29.5527 29.9629 29.3576 29.5674 29.065 29.2707L28.6749 28.6774L29.3576 27.7874L29.6502 27.9852C29.8453 27.9852 29.9428 28.183 30.1379 28.2819C30.528 28.4796 30.8206 28.6774 31.2108 28.9741C32.3812 29.8641 33.6491 30.754 34.8195 31.644C38.5258 34.4129 42.4271 37.1817 46.1334 40.0495C47.4989 41.1372 48.3767 41.1372 49.6446 40.0495C50.4249 39.3573 51.4002 38.7639 52.278 38.0717C52.6682 37.7751 53.1558 37.4784 53.6435 37.1817L53.9361 36.984L54.1312 37.2806C55.204 38.7639 56.2769 40.2472 57.3498 41.7306L57.5449 41.9283L53.8386 47.2683L57.5449 52.7071L55.9843 54.8826C55.3991 55.6737 54.8139 56.4648 54.2287 57.3548L54.0336 57.6514L53.741 57.4537C51.7904 56.0692 49.8397 54.7837 47.889 53.3993L29.4552 66.9469L29.5527 66.848ZM29.9428 28.7763C30.1379 29.073 30.333 29.3696 30.528 29.6663L32.7713 32.8307C35.5998 36.7862 38.5258 40.9395 41.5493 44.9938C42.5247 46.3783 42.9148 47.466 41.5493 49.1471C38.7209 52.9048 35.9899 56.7615 33.3565 60.4203C32.3812 61.9036 31.3083 63.288 30.333 64.7713C30.1379 65.068 29.9428 65.3647 29.7478 65.6613L47.889 52.3115L48.0841 52.5093C50.0348 53.7948 51.8879 55.0804 53.8386 56.4648C54.3262 55.7726 54.9114 54.9815 55.3991 54.2893L56.667 52.6082L53.2534 47.466L52.9608 47.2683L56.7646 41.8294C55.7892 40.5439 54.9114 39.2584 53.9361 37.8739C53.546 38.0717 53.2534 38.3684 52.8632 38.5662C51.8879 39.1595 51.0101 39.7528 50.2298 40.445C48.6693 41.8294 47.4014 41.8294 45.6457 40.445C41.9395 37.5773 38.0381 34.7095 34.3318 32.0396C33.1614 31.1496 31.8935 30.2596 30.7231 29.3696C30.4305 29.1718 30.1379 28.9741 29.8453 28.8752L29.9428 28.7763Z" fill="white"/>
<path d="M52.9608 31.5451C56.9597 34.5118 61.0561 37.5773 65.0549 40.5439C67.2007 42.1261 67.981 42.1261 70.0292 40.5439C73.833 37.6762 77.7343 34.8084 81.6357 31.9407C81.9283 31.644 82.4159 31.5451 82.7085 31.3474L83.0987 31.7429C82.8061 32.2373 82.5135 32.7318 82.2209 33.1273C79.3924 37.0828 76.5639 40.9394 73.7354 44.8949C72.37 46.8727 72.37 47.466 73.7354 49.4438C76.3689 53.2015 78.9047 57.0581 81.4406 60.8158C81.7332 61.3103 82.0258 61.8047 82.0258 62.5958C77.9294 59.5303 73.6379 56.5637 69.639 53.3993C68.0785 52.2126 67.0056 52.1137 65.3476 53.3993C61.7388 56.1681 57.935 58.6403 54.1312 61.2114C53.6435 61.508 53.1558 61.7058 52.278 61.7058C54.9115 58.1459 57.3498 54.5859 60.0807 51.2237C62.6166 47.9605 62.6166 46.6749 60.1783 43.4116C57.4473 39.7528 54.9115 35.8962 52.3756 32.1385C52.5706 31.9407 52.6682 31.8418 52.8632 31.644L52.9608 31.5451Z" fill="black"/>
<path d="M82.5135 63.3869L81.8307 62.8925C80.6603 62.0025 79.3924 61.1125 78.222 60.2225C75.296 58.1459 72.37 55.9704 69.444 53.696C67.981 52.6082 67.1032 52.6082 65.6402 53.696C62.9092 55.7726 60.0807 57.7503 57.2523 59.5303C56.2769 60.2225 55.3016 60.8159 54.4238 61.5081C53.8386 61.9036 53.1558 62.1014 52.3756 62.0025H51.5953L52.083 61.3103C52.8632 60.3214 53.546 59.2337 54.3262 58.2448C56.0819 55.7726 57.935 53.2015 59.8857 50.7293C62.2265 47.6638 62.324 46.5761 59.9832 43.4117C58.0325 40.7417 56.1794 37.9728 54.3262 35.3029C53.6435 34.2151 52.8632 33.2262 52.1805 32.1385L51.9854 31.8418L52.8632 31.0507H53.0583C53.0583 30.9518 53.2534 31.0507 53.2534 31.0507L55.9843 33.1274C59.1054 35.4018 62.2265 37.7751 65.3475 40.0495C67.2982 41.5328 67.8834 41.5328 69.8341 40.0495C73.6379 37.1817 77.5393 34.314 81.4406 31.4463C81.7332 31.2485 82.0258 31.0507 82.3184 30.9518C82.4159 30.9518 82.5135 30.8529 82.611 30.7541H82.9036C82.9036 30.6552 83.7814 31.3474 83.7814 31.3474L83.5863 31.644C83.5863 31.8418 83.3913 31.9407 83.2937 32.1385C83.0987 32.4351 82.9036 32.8307 82.7085 33.1274C79.8801 37.0829 77.0516 40.9395 74.2231 44.895C72.9552 46.6749 72.9552 47.0705 74.2231 48.9494C76.5639 52.3115 78.9047 55.8715 81.148 59.2337L81.9283 60.3214C82.3184 60.9147 82.5135 61.5081 82.611 62.2992V63.1892L82.5135 63.3869ZM67.4933 52.0149C68.2736 52.0149 69.0538 52.3115 69.9316 53.0037C72.8576 55.1793 75.7836 57.3548 78.7097 59.5303C79.5875 60.2225 80.5628 60.9147 81.4406 61.5081C81.4406 61.3103 81.2455 61.1125 81.148 61.0136L80.3677 59.9259C78.1245 56.5637 75.7836 53.1026 73.4428 49.6416C71.8823 47.466 71.8823 46.6749 73.4428 44.5983C76.2713 40.6428 79.0998 36.7862 81.9283 32.8307C82.1233 32.534 82.3184 32.2374 82.5135 31.9407C82.3184 32.0396 82.1233 32.1385 81.9283 32.3363C78.0269 35.204 74.2231 38.0717 70.3218 40.9395C68.0785 42.6206 67.1032 42.6206 64.8599 40.9395C61.7388 38.5662 58.6177 36.2918 55.4967 34.0173L52.9608 32.1385C53.6435 33.1274 54.2287 34.0173 54.9114 35.0062C56.7646 37.6762 58.6177 40.445 60.5684 43.115C63.1043 46.4772 63.0067 48.0594 60.4709 51.4215C58.6177 53.8937 56.7646 56.3659 54.9114 58.8381C54.3262 59.6292 53.741 60.4203 53.1558 61.2114C53.4484 61.2114 53.6435 61.0136 53.9361 60.9147C54.9114 60.2225 55.8868 59.6292 56.7646 58.937C59.4955 57.0581 62.4215 55.1793 65.0549 53.1026C65.9327 52.4104 66.713 52.1138 67.3958 52.1138L67.4933 52.0149Z" fill="white"/>
<path d="M67.0056 28.3807C65.1525 30.8529 63.3969 33.424 61.4462 35.9951C60.3733 35.3029 59.4955 34.7095 58.3251 34.0173C61.1536 31.9407 63.787 29.864 66.518 27.8863L67.0056 28.3807Z" fill="black"/>
<path d="M61.6413 36.4895L61.3487 36.2917C60.6659 35.7973 59.9832 35.4018 59.3005 34.9073L57.7399 33.9184L66.713 27.1941L67.6884 28.2819L67.4933 28.5785C65.6402 31.0507 63.8845 33.5229 61.9339 36.1929L61.7388 36.4895H61.6413ZM59.1054 33.9184L59.6906 34.314C60.2758 34.7095 60.861 35.1051 61.4462 35.4018C63.2018 33.0285 64.8599 30.6552 66.518 28.3807L59.1054 33.9184Z" fill="white"/>
<path d="M66.518 66.3535C63.8845 64.4747 61.3487 62.4969 58.5202 60.4203C59.4955 59.5303 60.3733 58.8381 61.3487 58.047C63.2994 60.8158 65.1525 63.3869 67.0056 65.958C66.8106 66.0569 66.713 66.2547 66.518 66.3535Z" fill="black"/>
<path d="M66.6155 66.848L57.935 60.4203L58.3251 60.1236C58.8128 59.7281 59.3005 59.2337 59.7881 58.8381C60.2758 58.4426 60.6659 58.047 61.1536 57.6515L61.4462 57.3548L61.7388 57.7503C63.1043 59.6292 64.3722 61.4092 65.6402 63.1892L67.5908 65.958L66.6155 66.848ZM59.2029 60.3214L66.3229 65.5625L64.9574 63.5847C63.787 61.9036 62.5191 60.2225 61.3487 58.5414C60.9585 58.8381 60.6659 59.1348 60.3733 59.4314C59.9832 59.7281 59.6906 60.0248 59.3005 60.3214H59.2029Z" fill="white"/>
<path d="M77.4417 33.1273C76.4664 33.9184 75.6861 34.5117 74.8083 35.3028C73.1502 33.0284 71.5897 30.754 70.0292 28.5785C70.2242 28.3807 70.3218 28.1829 70.5168 28.084C72.7601 29.6662 75.0034 31.3473 77.5393 33.1273H77.4417Z" fill="black"/>
<path d="M74.7108 35.8962L74.4182 35.5006C72.7601 33.2262 71.1996 30.9518 69.639 28.7763L69.444 28.4796L69.8341 27.9852C69.8341 27.9852 70.0292 27.7874 70.0292 27.6885L70.2242 27.3918L77.9294 33.0284L74.5157 35.7973L74.7108 35.8962ZM70.6144 28.5785C72.0774 30.5562 73.4429 32.534 74.9059 34.6106L76.759 33.1273L70.5168 28.5785H70.6144Z" fill="white"/>
<path d="M74.8083 59.0359C75.7837 59.7281 76.5639 60.3214 77.5393 61.0136C75.1009 62.8925 72.7601 64.5736 70.4193 66.3536C70.2242 66.1558 70.1267 66.0569 69.9316 65.958C71.4922 63.6836 73.1503 61.4092 74.8083 59.0359Z" fill="black"/>
<path d="M70.3218 66.848L69.3464 65.958L69.9316 65.068C71.3946 62.9914 72.8577 60.9148 74.4182 58.7392L74.6133 58.4426L78.1245 61.0136L75.6861 62.8925C73.9305 64.178 72.2724 65.4636 70.6144 66.7491L70.3218 66.9469V66.848ZM74.8083 59.5303C73.3453 61.607 71.9798 63.5847 70.5168 65.5625C72.0774 64.4747 73.6379 63.2881 75.1985 62.1014L76.759 60.9148L74.8083 59.5303Z" fill="white"/>
</svg>
